<svg xmlns="http://www.w3.org/2000/svg" xmlns:xlink="http://www.w3.org/1999/xlink" version="1.1" width="256" height="256" viewBox="0 0 256 256" xml:space="preserve">

<defs>
</defs>
<g style="stroke: none; stroke-width: 0; stroke-dasharray: none; stroke-linecap: butt; stroke-linejoin: miter; stroke-miterlimit: 10; fill: none; fill-rule: nonzero; opacity: 1;" transform="translate(1.4065934065934016 1.4065934065934016) scale(2.81 2.81)" >
	<path d="M 65.617 8.162 c -6.125 -5.753 -14.131 -8.634 -22.558 -8.1 c -14.966 0.94 -27.048 12.926 -28.103 27.879 c -0.704 9.972 3.545 19.62 11.365 25.809 c 3.553 2.811 5.591 6.931 5.591 11.301 v 0.671 c 0 1.104 0.895 2 2 2 h 22.177 c 1.104 0 2 -0.895 2 -2 v -0.673 c 0 -4.353 2.011 -8.515 5.38 -11.134 c 7.405 -5.754 11.653 -14.426 11.653 -23.793 C 75.122 21.839 71.658 13.835 65.617 8.162 z" style="stroke: none; stroke-width: 1; stroke-dasharray: none; stroke-linecap: butt; stroke-linejoin: miter; stroke-miterlimit: 10; fill: rgb(211,9,9); fill-rule: nonzero; opacity: 1;" transform=" matrix(1 0 0 1 0 0) " stroke-linecap="round" />
	<path d="M 56.089 75.147 H 33.911 c -1.104 0 -2 -0.895 -2 -2 s 0.895 -2 2 -2 h 22.177 c 1.104 0 2 0.895 2 2 S 57.193 75.147 56.089 75.147 z" style="stroke: none; stroke-width: 1; stroke-dasharray: none; stroke-linecap: butt; stroke-linejoin: miter; stroke-miterlimit: 10; fill: rgb(177,9,9); fill-rule: nonzero; opacity: 1;" transform=" matrix(1 0 0 1 0 0) " stroke-linecap="round" />
	<path d="M 56.089 82.574 H 33.911 c -1.104 0 -2 -0.895 -2 -2 s 0.895 -2 2 -2 h 22.177 c 1.104 0 2 0.895 2 2 S 57.193 82.574 56.089 82.574 z" style="stroke: none; stroke-width: 1; stroke-dasharray: none; stroke-linecap: butt; stroke-linejoin: miter; stroke-miterlimit: 10; fill: rgb(177,9,9); fill-rule: nonzero; opacity: 1;" transform=" matrix(1 0 0 1 0 0) " stroke-linecap="round" />
	<path d="M 53.389 89.999 H 36.611 c -1.104 0 -2 -0.895 -2 -2 c 0 -1.104 0.895 -2 2 -2 h 16.777 c 1.104 0 2 0.895 2 2 C 55.388 89.104 54.493 89.999 53.389 89.999 z" style="stroke: none; stroke-width: 1; stroke-dasharray: none; stroke-linecap: butt; stroke-linejoin: miter; stroke-miterlimit: 10; fill: rgb(177,9,9); fill-rule: nonzero; opacity: 1;" transform=" matrix(1 0 0 1 0 0) " stroke-linecap="round" />
</g>
</svg>