<svg width="53" height="49" viewBox="0 0 53 49" fill="none" xmlns="http://www.w3.org/2000/svg">
<g clip-path="url(#clip0_2059_620)">
<path d="M26.5 4.08325C41.1355 4.08325 48.5833 10.9689 48.5833 24.4999C48.5833 38.0309 41.1355 44.9166 26.5 44.9166C11.8644 44.9166 4.41663 38.0309 4.41663 24.4999C4.41663 10.9689 11.8644 4.08325 26.5 4.08325ZM37.4306 18.1272C36.5682 17.3299 35.17 17.3299 34.3076 18.1272L23.3753 28.2344L18.6923 23.9019C17.8299 23.1046 16.4317 23.1046 15.5693 23.9019C14.7069 24.6992 14.7069 25.992 15.5693 26.7893L21.8154 32.564C22.6778 33.3613 24.076 33.3613 24.9384 32.564L37.4306 21.0146C38.2931 20.2173 38.2931 18.9245 37.4306 18.1272Z" fill="#FFBA39"/>
</g>
<defs>
<clipPath id="clip0_2059_620">
<rect width="53" height="49" fill="white"/>
</clipPath>
</defs>
</svg>
